<svg width="31" height="32" viewBox="0 0 31 32" fill="none" xmlns="http://www.w3.org/2000/svg">
<path d="M9.50746 1V5.70149M7.26866 3.46269L9.50746 5.70149M9.50746 5.70149L13.0896 2.1194M9.50746 5.70149V9.28358M7.26866 7.04477L9.50746 9.28358M9.50746 9.28358L13.0896 5.70149M9.50746 9.28358V12.8657M13.0896 9.28358L9.50746 12.8657M9.50746 12.8657V26.2985L10.403 26.5224" stroke="#F1F6EF" stroke-width="1.11111" stroke-linecap="round" stroke-linejoin="round"/>
<path d="M5.47761 26.5224V20.0299M5.47761 8.16418V12.8657M7.71642 10.6269L5.47761 12.8657M5.47761 12.8657L1.89552 9.28359M5.47761 12.8657V16.4478M7.71642 14.209L5.47761 16.4478M5.47761 16.4478L1.89552 12.8657M5.47761 16.4478V20.0299M1.89552 16.4478L5.47761 20.0299M5.47761 20.0299L7.71642 17.791" stroke="#F1F6EF" stroke-width="1.11111" stroke-linecap="round" stroke-linejoin="round"/>
<path d="M14.4328 1V1C15.3396 1 16.0746 1.73505 16.0746 2.64179V26.2985" stroke="#F1F6EF" stroke-width="1.11111" stroke-linecap="round" stroke-linejoin="round"/>
<path d="M17.1194 1V1C17.9128 1 18.556 1.64317 18.556 2.43657V24.8246C18.556 25.7623 19.3161 26.5224 20.2537 26.5224V26.5224" stroke="#F1F6EF" stroke-width="1.11111" stroke-linecap="round" stroke-linejoin="round"/>
<path d="M21.597 1V1C22.5037 1 23.2388 1.73506 23.2388 2.64179V24.5821C23.2388 25.6537 24.1075 26.5224 25.1791 26.5224V26.5224" stroke="#F1F6EF" stroke-width="1.11111" stroke-linecap="round" stroke-linejoin="round"/>
<path d="M19.3582 1V1C20.1825 1 20.8507 1.66823 20.8507 2.49254V26.2985" stroke="#F1F6EF" stroke-width="1.11111" stroke-linecap="round" stroke-linejoin="round"/>
<path d="M10.403 26.5198L10.4636 26.5224L10.5242 26.5222L10.5848 26.5193L10.6454 26.5136L10.706 26.5052L10.7666 26.4941L10.8272 26.4805L10.8878 26.4644L10.9484 26.4458L11.009 26.425L11.0696 26.402L11.1302 26.377L11.1908 26.3501L11.2514 26.3215L11.312 26.2914L11.3726 26.26L11.4332 26.2274L11.4938 26.1939L11.5544 26.1597L11.615 26.1249L11.6756 26.0898L11.7362 26.0546L11.7968 26.0196L11.8574 25.9849L11.918 25.9507L11.9786 25.9173L12.0392 25.8849L12.0998 25.8536L12.1604 25.8237L12.221 25.7954L12.2816 25.7688L12.3422 25.744L12.4028 25.7213L12.4634 25.7008L12.524 25.6826L12.5846 25.6668L12.6452 25.6535L12.7058 25.6428L12.7664 25.6348L12.827 25.6295L12.8876 25.6269L12.9482 25.6271L13.0087 25.63L13.0693 25.6357L13.1299 25.6441L13.1905 25.6552L13.2511 25.6688L13.3117 25.685L13.3723 25.7035L13.4329 25.7243L13.4935 25.7473L13.5541 25.7723L13.6147 25.7992L13.6753 25.8278L13.7359 25.8579L13.7965 25.8893L13.8571 25.9219L13.9177 25.9554L13.9783 25.9896L14.0389 26.0244L14.0995 26.0595L14.1601 26.0947L14.2207 26.1297L14.2813 26.1644L14.3419 26.1986L14.4025 26.232L14.4631 26.2644L14.5237 26.2957L14.5843 26.3256L14.6449 26.3539L14.7055 26.3805L14.7661 26.4053L14.8267 26.428L14.8873 26.4485L14.9479 26.4667L15.0085 26.4825L15.0691 26.4958L15.1297 26.5065L15.1903 26.5145L15.2509 26.5198L15.3115 26.5224L15.3721 26.5222L15.4327 26.5193L15.4933 26.5136L15.5539 26.5052L15.6145 26.4941L15.6751 26.4805L15.7357 26.4644L15.7963 26.4458L15.8569 26.425L15.9175 26.402L15.9781 26.377L16.0387 26.3501L16.0993 26.3215L16.1599 26.2914L16.2205 26.26L16.2811 26.2274L16.3417 26.1939L16.4023 26.1597L16.4629 26.1249L16.5235 26.0898L16.5841 26.0546L16.6447 26.0196L16.7053 25.9849L16.7659 25.9507L16.8265 25.9173L16.8871 25.8849L16.9477 25.8536L17.0083 25.8237L17.0689 25.7954L17.1295 25.7688L17.1901 25.744L17.2507 25.7213L17.3113 25.7008L17.3719 25.6826L17.4325 25.6668L17.4931 25.6535L17.5537 25.6428L17.6143 25.6348L17.6749 25.6295L17.7355 25.6269L17.7961 25.6271L17.8567 25.63L17.9173 25.6357L17.9779 25.6441L18.0385 25.6552L18.0991 25.6688L18.1597 25.685L18.2203 25.7035L18.2809 25.7243L18.3415 25.7473L18.4021 25.7723L18.4627 25.7992L18.5233 25.8278L18.5839 25.8579L18.6445 25.8893L18.7051 25.9219L18.7657 25.9554L18.8263 25.9896L18.8869 26.0244L18.9475 26.0595L19.0081 26.0947L19.0687 26.1297L19.1293 26.1644L19.1899 26.1986L19.2505 26.232L19.3111 26.2644L19.3717 26.2957L19.4323 26.3256L19.4929 26.3539L19.5535 26.3805L19.6141 26.4053L19.6747 26.428L19.7353 26.4485L19.7959 26.4667L19.8565 26.4825L19.9171 26.4958L19.9777 26.5065L20.0383 26.5145L20.0989 26.5198L20.1595 26.5224L20.2201 26.5222L20.2807 26.5193L20.3413 26.5136L20.4019 26.5052L20.4625 26.4941L20.5231 26.4805L20.5837 26.4644L20.6443 26.4458L20.7049 26.425L20.7655 26.402L20.8261 26.377L20.8867 26.3501L20.9473 26.3215L21.0078 26.2914L21.0684 26.26L21.129 26.2274L21.1896 26.1939L21.2502 26.1597L21.3108 26.1249L21.3714 26.0898L21.432 26.0546L21.4926 26.0196L21.5532 25.9849L21.6138 25.9507L21.6744 25.9173L21.735 25.8849L21.7956 25.8536L21.8562 25.8237L21.9168 25.7954L21.9774 25.7688L22.038 25.744L22.0986 25.7213L22.1592 25.7008L22.2198 25.6826L22.2804 25.6668L22.341 25.6535L22.4016 25.6428L22.4622 25.6348L22.5228 25.6295L22.5834 25.6269L22.644 25.6271L22.7046 25.63L22.7652 25.6357L22.8258 25.6441L22.8864 25.6552L22.947 25.6688L23.0076 25.685L23.0682 25.7035L23.1288 25.7243L23.1894 25.7473L23.25 25.7723L23.3106 25.7992L23.3712 25.8278L23.4318 25.8579L23.4924 25.8893L23.553 25.9219L23.6136 25.9554L23.6742 25.9896L23.7348 26.0244L23.7954 26.0595L23.856 26.0947L23.9166 26.1297L23.9772 26.1644L24.0378 26.1986L24.0984 26.232L24.159 26.2644L24.2196 26.2957L24.2802 26.3256L24.3408 26.3539L24.4014 26.3805L24.462 26.4053L24.5226 26.428L24.5832 26.4485L24.6438 26.4667L24.7044 26.4825L24.765 26.4958L24.8256 26.5065L24.8862 26.5145L24.9468 26.5198L25.0074 26.5224L25.068 26.5222L25.1286 26.5193L25.1892 26.5136L25.2498 26.5052L25.3104 26.4941L25.371 26.4805L25.4316 26.4644L25.4922 26.4458L25.5528 26.425L25.6134 26.402L25.674 26.377L25.7346 26.3501L25.7952 26.3215L25.8558 26.2914L25.9164 26.26L25.977 26.2274L26.0376 26.1939L26.0982 26.1597L26.1588 26.1249L26.2194 26.0898L26.28 26.0546L26.3406 26.0196L26.4012 25.9849L26.4618 25.9507L26.5224 25.9173L26.583 25.8849L26.6436 25.8536L26.7042 25.8237L26.7648 25.7954L26.8254 25.7688L26.886 25.744L26.9466 25.7213L27.0072 25.7008L27.0678 25.6826L27.1284 25.6668L27.189 25.6535L27.2496 25.6428L27.3102 25.6348L27.3708 25.6295L27.4314 25.6269L27.492 25.6271L27.5526 25.63L27.6132 25.6357L27.6738 25.6441L27.7344 25.6552L27.795 25.6688L27.8556 25.685L27.9162 25.7035L27.9768 25.7243L28.0374 25.7473L28.098 25.7723L28.1586 25.7992L28.2192 25.8278L28.2798 25.8579L28.3404 25.8893L28.401 25.9219L28.4616 25.9554L28.5222 25.9896L28.5828 26.0244L28.6434 26.0595L28.704 26.0947L28.7646 26.1297L28.8252 26.1644L28.8858 26.1986L28.9463 26.232L29.0069 26.2644L29.0675 26.2957L29.1281 26.3256L29.1887 26.3539L29.2493 26.3805L29.3099 26.4053L29.3705 26.428L29.4311 26.4485L29.4917 26.4667L29.5523 26.4825L29.6129 26.4958L29.6735 26.5065L29.7341 26.5145L29.7947 26.5198L29.8553 26.5224L29.9159 26.5222" stroke="#F1F6EF" stroke-width="1.11111" stroke-miterlimit="10" stroke-linecap="round" stroke-linejoin="round"/>
<path d="M1 28.7586L1.0606 28.7612L1.1212 28.761L1.1818 28.758L1.2424 28.7524L1.303 28.744L1.3636 28.7329L1.42419 28.7193L1.48479 28.7031L1.54539 28.6846L1.60599 28.6637L1.66659 28.6408L1.72719 28.6157L1.78779 28.5889L1.84839 28.5603L1.90899 28.5302L1.96959 28.4988L2.03019 28.4662L2.09079 28.4327L2.15139 28.3984L2.21198 28.3637L2.27258 28.3286L2.33318 28.2934L2.39378 28.2584L2.45438 28.2236L2.51498 28.1895L2.57558 28.1561L2.63618 28.1237L2.69678 28.0924L2.75738 28.0625L2.81798 28.0342L2.87858 28.0075L2.93918 27.9828L2.99978 27.9601L3.06037 27.9396L3.12097 27.9213L3.18157 27.9055L3.24217 27.8923L3.30277 27.8816L3.36337 27.8735L3.42397 27.8682L3.48457 27.8657L3.54517 27.8659L3.60577 27.8688L3.66637 27.8745L3.72697 27.8829L3.78757 27.8939L3.84816 27.9076L3.90876 27.9237L3.96936 27.9423L4.02996 27.9631L4.09056 27.9861L4.15116 28.0111L4.21176 28.038L4.27236 28.0665L4.33296 28.0966L4.39356 28.1281L4.45416 28.1606L4.51476 28.1942L4.57536 28.2284L4.63595 28.2632L4.69655 28.2983L4.75715 28.3334L4.81775 28.3685L4.87835 28.4032L4.93895 28.4374L4.99955 28.4708L5.06015 28.5032L5.12075 28.5344L5.18135 28.5643L5.24195 28.5927L5.30255 28.6193L5.36315 28.6441L5.42375 28.6668L5.48434 28.6873L5.54494 28.7055L5.60554 28.7213L5.66614 28.7346L5.72674 28.7453L5.78734 28.7533L5.84794 28.7586L5.90854 28.7612L5.96914 28.761L6.02974 28.758L6.09034 28.7524L6.15094 28.744L6.21154 28.7329L6.27213 28.7193L6.33273 28.7031L6.39333 28.6846L6.45393 28.6637L6.51453 28.6408L6.57513 28.6157L6.63573 28.5889L6.69633 28.5603L6.75693 28.5302L6.81753 28.4988L6.87813 28.4662L6.93873 28.4327L6.99933 28.3984L7.05992 28.3637L7.12052 28.3286L7.18112 28.2934L7.24172 28.2584L7.30232 28.2236L7.36292 28.1895L7.42352 28.1561L7.48412 28.1237L7.54472 28.0924L7.60532 28.0625L7.66592 28.0342L7.72652 28.0075L7.78712 27.9828L7.84772 27.9601L7.90831 27.9396L7.96891 27.9213L8.02951 27.9055L8.09011 27.8923L8.15071 27.8816L8.21131 27.8735L8.27191 27.8682L8.33251 27.8657L8.39311 27.8659L8.45371 27.8688L8.51431 27.8745L8.57491 27.8829L8.63551 27.8939L8.6961 27.9076L8.7567 27.9237L8.8173 27.9423L8.8779 27.9631L8.9385 27.9861L8.9991 28.0111L9.0597 28.038L9.1203 28.0665L9.1809 28.0966L9.2415 28.1281L9.3021 28.1606L9.3627 28.1942L9.4233 28.2284L9.48389 28.2632L9.54449 28.2983L9.60509 28.3334L9.66569 28.3685L9.72629 28.4032L9.78689 28.4374L9.84749 28.4708L9.90809 28.5032L9.96869 28.5344L10.0293 28.5643L10.0899 28.5927L10.1505 28.6193L10.2111 28.6441L10.2717 28.6668L10.3323 28.6873L10.3929 28.7055L10.4535 28.7213L10.5141 28.7346L10.5747 28.7453L10.6353 28.7533L10.6959 28.7586L10.7565 28.7612L10.8171 28.761L10.8777 28.758L10.9383 28.7524L10.9989 28.744L11.0595 28.7329L11.1201 28.7193L11.1807 28.7031L11.2413 28.6846L11.3019 28.6637L11.3625 28.6408L11.4231 28.6157L11.4837 28.5889L11.5443 28.5603L11.6049 28.5302L11.6655 28.4988L11.7261 28.4662L11.7867 28.4327L11.8473 28.3984L11.9079 28.3637L11.9685 28.3286L12.0291 28.2934L12.0897 28.2584L12.1503 28.2236L12.2109 28.1895L12.2715 28.1561L12.3321 28.1237L12.3927 28.0924L12.4533 28.0625L12.5139 28.0342L12.5745 28.0075L12.6351 27.9828L12.6957 27.9601L12.7563 27.9396L12.8169 27.9213L12.8775 27.9055L12.9381 27.8923L12.9987 27.8816L13.0593 27.8735L13.1198 27.8682L13.1804 27.8657L13.241 27.8659L13.3016 27.8688L13.3622 27.8745L13.4228 27.8829L13.4834 27.8939L13.544 27.9076L13.6046 27.9237L13.6652 27.9423L13.7258 27.9631L13.7864 27.9861L13.847 28.0111L13.9076 28.038L13.9682 28.0665L14.0288 28.0966L14.0894 28.1281L14.15 28.1606L14.2106 28.1942L14.2712 28.2284L14.3318 28.2632L14.3924 28.2983L14.453 28.3334L14.5136 28.3685L14.5742 28.4032L14.6348 28.4374L14.6954 28.4708L14.756 28.5032L14.8166 28.5344L14.8772 28.5643L14.9378 28.5927L14.9984 28.6193L15.059 28.6441L15.1196 28.6668L15.1802 28.6873L15.2408 28.7055L15.3014 28.7213L15.362 28.7346L15.4226 28.7453L15.4832 28.7533L15.5438 28.7586L15.6044 28.7612L15.665 28.761L15.7256 28.758L15.7862 28.7524L15.8468 28.744L15.9074 28.7329L15.968 28.7193L16.0286 28.7031L16.0892 28.6846L16.1498 28.6637L16.2104 28.6408L16.271 28.6157L16.3316 28.5889L16.3922 28.5603L16.4528 28.5302L16.5134 28.4988L16.574 28.4662L16.6346 28.4327L16.6952 28.3984L16.7558 28.3637L16.8164 28.3286L16.877 28.2934L16.9376 28.2584L16.9982 28.2236L17.0588 28.1895L17.1194 28.1561L17.18 28.1237L17.2406 28.0924L17.3012 28.0625L17.3618 28.0342L17.4224 28.0075L17.483 27.9828L17.5436 27.9601L17.6042 27.9396L17.6648 27.9213L17.7254 27.9055L17.786 27.8923L17.8466 27.8816L17.9072 27.8735L17.9678 27.8682L18.0284 27.8657L18.089 27.8659L18.1496 27.8688L18.2102 27.8745L18.2708 27.8829L18.3314 27.8939L18.392 27.9076L18.4526 27.9237L18.5132 27.9423L18.5738 27.9631L18.6344 27.9861L18.695 28.0111L18.7556 28.038L18.8162 28.0665L18.8768 28.0966L18.9374 28.1281L18.998 28.1606L19.0586 28.1942L19.1192 28.2284L19.1798 28.2632L19.2404 28.2983L19.301 28.3334L19.3616 28.3685L19.4222 28.4032L19.4828 28.4374L19.5434 28.4708L19.604 28.5032L19.6646 28.5344L19.7252 28.5643L19.7858 28.5927L19.8464 28.6193L19.907 28.6441L19.9676 28.6668L20.0282 28.6873L20.0888 28.7055L20.1494 28.7213L20.21 28.7346L20.2706 28.7453L20.3312 28.7533L20.3918 28.7586L20.4524 28.7612L20.513 28.761L20.5736 28.758L20.6342 28.7524L20.6948 28.744L20.7554 28.7329L20.816 28.7193L20.8766 28.7031L20.9372 28.6846L20.9978 28.6637L21.0584 28.6408L21.119 28.6157L21.1795 28.5889L21.2401 28.5603L21.3007 28.5302L21.3613 28.4988L21.4219 28.4662L21.4825 28.4327L21.5431 28.3984L21.6037 28.3637L21.6643 28.3286L21.7249 28.2934L21.7855 28.2584L21.8461 28.2236L21.9067 28.1895L21.9673 28.1561L22.0279 28.1237L22.0885 28.0924L22.1491 28.0625L22.2097 28.0342L22.2703 28.0075L22.3309 27.9828L22.3915 27.9601L22.4521 27.9396L22.5127 27.9213L22.5733 27.9055L22.6339 27.8923L22.6945 27.8816L22.7551 27.8735L22.8157 27.8682L22.8763 27.8657L22.9369 27.8659L22.9975 27.8688L23.0581 27.8745L23.1187 27.8829L23.1793 27.8939L23.2399 27.9076L23.3005 27.9237L23.3611 27.9423L23.4217 27.9631L23.4823 27.9861L23.5429 28.0111L23.6035 28.038L23.6641 28.0665L23.7247 28.0966L23.7853 28.1281L23.8459 28.1606L23.9065 28.1942L23.9671 28.2284L24.0277 28.2632L24.0883 28.2983L24.1489 28.3334L24.2095 28.3685L24.2701 28.4032L24.3307 28.4374L24.3913 28.4708L24.4519 28.5032L24.5125 28.5344L24.5731 28.5643L24.6337 28.5927L24.6943 28.6193L24.7549 28.6441L24.8155 28.6668L24.8761 28.6873L24.9367 28.7055L24.9973 28.7213L25.0579 28.7346L25.1185 28.7453L25.1791 28.7533" stroke="#F1F6EF" stroke-width="1.11111" stroke-miterlimit="10" stroke-linecap="round" stroke-linejoin="round"/>
<path d="M5.96914 30.9998L6.02974 30.9969L6.09034 30.9912L6.15094 30.9828L6.21154 30.9717L6.27213 30.9581L6.33273 30.942L6.39333 30.9234L6.45393 30.9026L6.51453 30.8796L6.57513 30.8546L6.63573 30.8277L6.69633 30.7991L6.75693 30.769L6.81753 30.7376L6.87813 30.705L6.93873 30.6715L6.99933 30.6373L7.05992 30.6025L7.12052 30.5674L7.18112 30.5322L7.24172 30.4972L7.30232 30.4625L7.36292 30.4283L7.42352 30.3949L7.48412 30.3625L7.54472 30.3312L7.60532 30.3013L7.66592 30.273L7.72652 30.2464L7.78712 30.2216L7.84771 30.1989L7.90831 30.1784L7.96891 30.1602L8.02951 30.1444L8.09011 30.1311L8.15071 30.1204L8.21131 30.1124L8.27191 30.1071L8.33251 30.1045L8.39311 30.1047L8.45371 30.1076L8.51431 30.1133L8.57491 30.1217L8.6355 30.1328L8.6961 30.1464L8.7567 30.1626L8.8173 30.1811L8.8779 30.2019L8.9385 30.2249L8.9991 30.2499L9.0597 30.2768L9.1203 30.3054L9.1809 30.3355L9.2415 30.3669L9.3021 30.3995L9.3627 30.433L9.42329 30.4672L9.48389 30.502L9.54449 30.5371L9.60509 30.5723L9.66569 30.6073L9.72629 30.642L9.78689 30.6762L9.84749 30.7096L9.90809 30.742L9.96869 30.7733L10.0293 30.8032L10.0899 30.8315L10.1505 30.8581L10.2111 30.8829L10.2717 30.9056L10.3323 30.9261L10.3929 30.9443L10.4535 30.9601L10.5141 30.9734L10.5747 30.9841L10.6353 30.9921L10.6959 30.9974L10.7565 31L10.8171 30.9998L10.8777 30.9969L10.9383 30.9912L10.9989 30.9828L11.0595 30.9717L11.1201 30.9581L11.1807 30.942L11.2413 30.9234L11.3019 30.9026L11.3625 30.8796L11.4231 30.8546L11.4837 30.8277L11.5443 30.7991L11.6049 30.769L11.6655 30.7376L11.7261 30.705L11.7867 30.6715L11.8473 30.6373L11.9079 30.6025L11.9685 30.5674L12.0291 30.5322L12.0897 30.4972L12.1503 30.4625L12.2109 30.4283L12.2715 30.3949L12.3321 30.3625L12.3927 30.3312L12.4533 30.3013L12.5139 30.273L12.5745 30.2464L12.6351 30.2216L12.6957 30.1989L12.7563 30.1784L12.8169 30.1602L12.8775 30.1444L12.9381 30.1311L12.9987 30.1204L13.0592 30.1124L13.1198 30.1071L13.1804 30.1045L13.241 30.1047L13.3016 30.1076L13.3622 30.1133L13.4228 30.1217L13.4834 30.1328L13.544 30.1464L13.6046 30.1626L13.6652 30.1811L13.7258 30.2019L13.7864 30.2249L13.847 30.2499L13.9076 30.2768L13.9682 30.3054L14.0288 30.3355L14.0894 30.3669L14.15 30.3995L14.2106 30.433L14.2712 30.4672L14.3318 30.502L14.3924 30.5371L14.453 30.5723L14.5136 30.6073L14.5742 30.642L14.6348 30.6762L14.6954 30.7096L14.756 30.742L14.8166 30.7733L14.8772 30.8032L14.9378 30.8315L14.9984 30.8581L15.059 30.8829L15.1196 30.9056L15.1802 30.9261L15.2408 30.9443L15.3014 30.9601L15.362 30.9734L15.4226 30.9841L15.4832 30.9921L15.5438 30.9974L15.6044 31L15.665 30.9998L15.7256 30.9969L15.7862 30.9912L15.8468 30.9828L15.9074 30.9717L15.968 30.9581L16.0286 30.942L16.0892 30.9234L16.1498 30.9026L16.2104 30.8796L16.271 30.8546L16.3316 30.8277L16.3922 30.7991L16.4528 30.769L16.5134 30.7376L16.574 30.705L16.6346 30.6715L16.6952 30.6373L16.7558 30.6025L16.8164 30.5674L16.877 30.5322L16.9376 30.4972L16.9982 30.4625L17.0588 30.4283L17.1194 30.3949L17.18 30.3625L17.2406 30.3312L17.3012 30.3013L17.3618 30.273L17.4224 30.2464L17.483 30.2216L17.5436 30.1989L17.6042 30.1784L17.6648 30.1602L17.7254 30.1444L17.786 30.1311L17.8466 30.1204L17.9072 30.1124L17.9678 30.1071L18.0284 30.1045L18.089 30.1047L18.1496 30.1076L18.2102 30.1133L18.2708 30.1217L18.3314 30.1328L18.392 30.1464L18.4526 30.1626L18.5132 30.1811L18.5738 30.2019L18.6344 30.2249L18.695 30.2499L18.7556 30.2768L18.8162 30.3054L18.8768 30.3355L18.9374 30.3669L18.998 30.3995L19.0586 30.433L19.1192 30.4672L19.1798 30.502L19.2404 30.5371L19.301 30.5723L19.3616 30.6073L19.4222 30.642L19.4828 30.6762L19.5434 30.7096L19.604 30.742L19.6646 30.7733L19.7252 30.8032L19.7858 30.8315L19.8464 30.8581L19.907 30.8829L19.9676 30.9056L20.0282 30.9261L20.0888 30.9443L20.1494 30.9601L20.21 30.9734L20.2706 30.9841L20.3312 30.9921L20.3918 30.9974L20.4524 31L20.513 30.9998L20.5736 30.9969L20.6342 30.9912L20.6948 30.9828L20.7554 30.9717L20.816 30.9581L20.8766 30.942L20.9372 30.9234L20.9977 30.9026L21.0583 30.8796L21.1189 30.8546L21.1795 30.8277L21.2401 30.7991L21.3007 30.769L21.3613 30.7376L21.4219 30.705L21.4825 30.6715L21.5431 30.6373L21.6037 30.6025L21.6643 30.5674L21.7249 30.5322L21.7855 30.4972L21.8461 30.4625L21.9067 30.4283L21.9673 30.3949L22.0279 30.3625L22.0885 30.3312L22.1491 30.3013L22.2097 30.273L22.2703 30.2464L22.3309 30.2216L22.3915 30.1989L22.4521 30.1784L22.5127 30.1602L22.5733 30.1444L22.6339 30.1311L22.6945 30.1204L22.7551 30.1124L22.8157 30.1071L22.8763 30.1045L22.9369 30.1047L22.9975 30.1076L23.0581 30.1133L23.1187 30.1217L23.1793 30.1328L23.2399 30.1464L23.3005 30.1626L23.3611 30.1811L23.4217 30.2019L23.4823 30.2249L23.5429 30.2499L23.6035 30.2768L23.6641 30.3054L23.7247 30.3355L23.7853 30.3669L23.8459 30.3995L23.9065 30.433L23.9671 30.4672L24.0277 30.502L24.0883 30.5371L24.1489 30.5723L24.2095 30.6073L24.2701 30.642L24.3307 30.6762L24.3913 30.7096L24.4519 30.742L24.5125 30.7733L24.5731 30.8032L24.6337 30.8315L24.6943 30.8581L24.7549 30.8829L24.8155 30.9056L24.8761 30.9261L24.9367 30.9443L24.9973 30.9601L25.0579 30.9734L25.1185 30.9841L25.1791 30.9921" stroke="#F1F6EF" stroke-width="1.11111" stroke-miterlimit="10" stroke-linecap="round" stroke-linejoin="round"/>
</svg>
