<svg width="22" height="22" viewBox="0 0 22 22" fill="none" xmlns="http://www.w3.org/2000/svg">
<path d="M17.8295 18.89L20.219 21.281C20.3598 21.4218 20.5508 21.5009 20.75 21.5009C20.9491 21.5009 21.1401 21.4218 21.281 21.281C21.4218 21.1401 21.5009 20.9491 21.5009 20.75C21.5009 20.5508 21.4218 20.3598 21.281 20.219L1.78097 0.718971C1.71124 0.649239 1.62846 0.593925 1.53735 0.556186C1.44624 0.518447 1.34859 0.499023 1.24997 0.499023C1.15136 0.499023 1.0537 0.518447 0.962596 0.556186C0.871487 0.593925 0.788703 0.649239 0.718971 0.718971C0.649239 0.788703 0.593925 0.871487 0.556186 0.962596C0.518447 1.0537 0.499023 1.15136 0.499023 1.24997C0.499023 1.34859 0.518447 1.44624 0.556186 1.53735C0.593925 1.62846 0.649239 1.71124 0.718971 1.78097L6.49997 7.56047V15.9005C5.9281 15.5703 5.26327 15.438 4.60857 15.5242C3.95387 15.6103 3.34589 15.9101 2.8789 16.377C2.41191 16.8439 2.11201 17.4518 2.02571 18.1064C1.9394 18.7611 2.0715 19.426 2.40154 19.9979C2.73157 20.5699 3.2411 21.017 3.8511 21.2698C4.4611 21.5227 5.1375 21.5673 5.7754 21.3966C6.4133 21.2259 6.97707 20.8495 7.37927 20.3258C7.78148 19.8021 7.99966 19.1603 7.99997 18.5V10.0295L8.71247 9.77447L13.61 14.672C13.2833 14.9366 13.016 15.2669 12.8252 15.6415C12.6344 16.016 12.5245 16.4265 12.5026 16.8463C12.4806 17.2661 12.5471 17.6858 12.6978 18.0782C12.8484 18.4707 13.0799 18.8271 13.3771 19.1243C13.6744 19.4215 14.0308 19.653 14.4232 19.8037C14.8156 19.9543 15.2353 20.0208 15.6551 19.9989C16.0749 19.9769 16.4854 19.867 16.86 19.6762C17.2346 19.4855 17.5649 19.2166 17.8295 18.89ZM17 6.81497V13.8185L18.5 15.3185V1.88897C18.5002 1.69643 18.4541 1.50665 18.3655 1.33568C18.277 1.16471 18.1486 1.01755 17.9912 0.906641C17.8338 0.795731 17.652 0.724323 17.4612 0.698447C17.2704 0.672571 17.0762 0.692987 16.895 0.757971L7.35197 4.16747L11.84 8.65697L17 6.81497Z" fill="black" fill-opacity="0.25"/>
</svg>
