<svg width="17" height="22" viewBox="0 0 17 22" fill="none" xmlns="http://www.w3.org/2000/svg">
<path d="M15 6.81503V14.402C14.4281 14.0718 13.7632 13.9396 13.1084 14.0258C12.4537 14.112 11.8456 14.4118 11.3787 14.8788C10.9117 15.3458 10.6119 15.9538 10.5257 16.6086C10.4395 17.2633 10.5717 17.9282 10.9019 18.5001C11.2322 19.0721 11.7419 19.519 12.352 19.7718C12.9621 20.0245 13.6386 20.0688 14.2765 19.8979C14.9144 19.7269 15.4781 19.3503 15.8801 18.8263C16.2821 18.3024 16.5 17.6604 16.5 17V1.88903C16.5002 1.69649 16.4541 1.50672 16.3656 1.33574C16.277 1.16477 16.1486 1.01761 15.9912 0.906702C15.8338 0.795792 15.6521 0.724384 15.4613 0.698508C15.2705 0.672632 15.0763 0.693048 14.895 0.758032L5.295 4.18703C5.06228 4.27047 4.861 4.42376 4.7187 4.62593C4.5764 4.82811 4.50002 5.0693 4.5 5.31653V15.9005C3.92813 15.5704 3.2633 15.4381 2.6086 15.5243C1.9539 15.6104 1.34592 15.9102 0.878935 16.377C0.411948 16.8439 0.112048 17.4518 0.0257394 18.1065C-0.060569 18.7612 0.0715371 19.426 0.401572 19.998C0.731607 20.5699 1.24113 21.017 1.85113 21.2699C2.46113 21.5228 3.13753 21.5673 3.77543 21.3967C4.41333 21.226 4.9771 20.8496 5.37931 20.3259C5.78151 19.8022 5.99969 19.1604 6 18.5V10.0295L15 6.81503Z" fill="black" fill-opacity="0.25"/>
</svg>
